<svg width="50" height="50" viewBox="0 0 50 50" fill="none" xmlns="http://www.w3.org/2000/svg">
<path d="M16.6673 16.6668H16.0651C14.0587 16.6668 13.0559 16.6668 12.2423 17.0318C11.525 17.3536 10.914 17.8718 10.4787 18.5264C9.9849 19.2689 9.81889 20.2582 9.48904 22.2373L7.5446 33.904L7.54382 33.9083C7.09915 36.5763 6.8767 37.911 7.26305 38.9511C7.60226 39.8644 8.25186 40.6297 9.09692 41.1145C10.0599 41.6668 11.4127 41.6668 14.1201 41.6668H35.8806C38.5881 41.6668 39.9431 41.6668 40.906 41.1145C41.7511 40.6297 42.3992 39.8644 42.7384 38.9511C43.1246 37.9114 42.9022 36.5773 42.4579 33.9114L42.4562 33.904L40.5117 22.2373C40.1819 20.2582 40.0168 19.2689 39.5229 18.5264C39.0877 17.8718 38.4762 17.3536 37.7589 17.0318C36.9453 16.6668 35.9431 16.6668 33.9367 16.6668H33.334M16.6673 16.6668H33.334M16.6673 16.6668C16.6673 12.0645 20.3983 8.3335 25.0007 8.3335C29.603 8.3335 33.334 12.0645 33.334 16.6668" stroke="white" stroke-width="2" stroke-linecap="round" stroke-linejoin="round"/>
</svg>
